<svg width="40" height="40" version="1.1" viewBox="0 0 640 640" xmlns="http://www.w3.org/2000/svg" xmlns:cc="http://creativecommons.org/ns#" xmlns:dc="http://purl.org/dc/elements/1.1/" xmlns:rdf="http://www.w3.org/1999/02/22-rdf-syntax-ns#">' +
<g>
<path d="m417.47 259.76c5.9857-0.0289 11.971-1.5424 17.708-4.4631l58.458-34.392c-2.2275-3.4048-5.9518-6.4682-12.129-9.9264l-148.18-85.029c-4.4964-2.6692-8.0954-4.0834-11.816-4.0728-19.05 18.761-19.452 72.358 0 91.768 4.7804 0.30336 9.5819 1.8537 14.356 4.6688l64.986 37.58c5.4029 2.6216 11.011 3.8925 16.618 3.8654z" fill="#eeeeee"/>
<path d="m222.52 380.24c-5.9857 0.0289-11.971 1.5424-17.708 4.4631l-58.458 34.392c2.2275 3.4048 5.9518 6.4682 12.129 9.9264l148.18 85.029c4.4964 2.6692 8.0954 4.0834 11.816 4.0728 12.365-27.335 22.783-55.183 0-91.768-4.7804-0.30336-9.5819-1.8537-14.356-4.6687l-64.986-37.58c-5.4029-2.6216-11.011-3.8925-16.618-3.8654z" fill="#eeeeee"/>
<path d="m441.66 360.39-105.84 61.291c-5.7626 3.495-11.662 5.0452-17.597 4.6686v91.769c3.5357-0.0101 7.1813-1.3066 11.816-4.0737l148.18-85.028c6.0164-3.3686 9.7046-6.3632 11.951-9.663 0.27833-38.421-20.265-58.4-48.51-58.964z" fill="#e0e0e0"/>
<path d="m319.98 228.89c-4.013 0.0197-8.0259 1.2054-11.816 3.4928l-61.552 36.287 223.77 129.16c6.9581 4.1332 12.754 9.0269 16.65 15.731 1.2163 1.7703 2.2723 3.6887 3.1394 5.7937l0.1371 0.0721c2.8028-4.1178 3.3557-8.7103 3.3557-15.103v-61.407c-0.10669-10.897-2.1162-16.502-14.936-23.882l-68.335-40.315-77.948-45.954c-2.7284-1.4609-6.0003-2.7441-9.4728-3.6738-0.9961-0.14049-1.9958-0.20705-2.9953-0.20214z" fill="#eeeeee"/>
<path d="m198.34 279.61 105.84-61.291c5.7626-3.495 11.662-5.0452 17.597-4.6686v-91.769c-3.5357 0.0101-7.1813 1.3066-11.816 4.0737l-148.18 85.028c-6.0164 3.3686-9.7046 6.3632-11.951 9.663 0.42876 38.421 25.922 59.107 48.51 58.964z" fill="#eeeeee"/>
<path d="m320.02 411.11c4.013-0.0197 8.0259-1.2054 11.816-3.4928l61.552-36.286-223.77-129.16c-6.9581-4.1332-12.754-9.0269-16.65-15.731-1.2163-1.7703-2.2723-3.6888-3.1394-5.7937l-0.13711-0.0721c-2.8028 4.1178-3.3557 8.7103-3.3557 15.103v61.407c0.10669 10.897 2.1162 16.502 14.936 23.882l68.335 40.315 77.948 45.954c2.7284 1.4609 6.0003 2.7441 9.4728 3.6738 0.99611 0.14048 1.9958 0.20704 2.9953 0.20214z" fill="#e0e0e0"/>
  </g>
</svg>