<?xml version="1.0" encoding="UTF-8"?>
<!-- Generator: Adobe Illustrator 22.0.1, SVG Export Plug-In . SVG Version: 6.00 Build 0)  -->
<svg enable-background="new 0 0 1000 1000" version="1.1" viewBox="0 0 1e3 1e3" xml:space="preserve" xmlns="http://www.w3.org/2000/svg">
<g id="Layer_x5F_Background">
	
		<path d="m609.79 436.98c1.8559-6.4648 3.7117-12.93 5.5675-19.394 0.27271-0.94995 0.70148-1.8479 1.2687-2.6572 5.3214-7.5915 10.643-15.183 15.964-22.774 1.1866 10.23 2.3732 20.459 3.5598 30.689-8.7867 4.7123-17.573 9.4246-26.36 14.137z" fill="#75EEF5"/>
	
	
		<polygon points="761.32 361.92 748.93 333.39 779.11 299.93 791.5 328.45" fill="#5971F7"/>
	
	
		<polygon points="761.32 361.92 790.97 371.29 821.15 337.83 791.5 328.45" fill="#FF70EA"/>
	
	
		<polygon points="791.38 328.4 779.11 299.93 807.76 310.42 821.15 337.83" fill="#75EEF5"/>
	
	
		<path d="m695.9 446.49-22.324 34.283c-2.0522 3.1517-6.3931 3.8103-9.2879 1.4092l-54.496-45.202 16.406-25.195 69.702 34.704z" fill="#5971F7"/>
	
	
		<path d="m703.71 422.74-7.8088 23.751-69.702-34.704 6.3937-19.631 66.545 21.579c3.7546 1.2175 5.8043 5.2549 4.5716 9.0045z" fill="#FF70EA"/>
	
	
		<path d="m805.74 482.3 23.876 59.49c5.3346 13.292-1.1177 28.396-14.41 33.73-13.292 5.3346-28.395-1.1177-33.73-14.41l-23.687-59.021c-0.63837-3.4359 0.80988-7.3172 3.8049-10.981l34.032-13.658c4.5146 0.52975 8.1296 2.1829 10.115 4.8495z" fill="#5971F7"/>
	
	
		<path d="m806.82 484.2c0.27478 0.68472 0.45209 1.3978 0.54114 2.1353 0.85858 7.2139-7.2187 16.261-19.394 21.147-12.476 5.007-24.852 3.8858-28.941-2.3146-0.30646-0.46515-0.56604-0.9491-0.77686-1.4744s-0.35785-1.0544-0.45795-1.6024c-0.62897-3.4397 0.83801-7.3285 3.8706-11.007 3.4113-4.1463 8.8142-8.0247 15.437-10.683 6.6131-2.6541 13.198-3.587 18.529-2.9494 4.5146 0.52975 8.1296 2.1829 10.115 4.8495 0.44177 0.58511 0.80286 1.2135 1.0777 1.8983z" fill="#75EEF5"/>
	
	
		
			
				<path d="m693.26 918.09c-4.375 0-8.793-0.030273-13.255-0.088867-114.51-1.5156-206.23-17.602-272.63-47.81-57.415-26.121-92.536-61.623-101.56-102.67-5.9399-27.002 0.063965-54.944 17.364-80.807 17.244-25.777 44.953-48.301 80.132-65.134 36.768-17.595 84.657-29.889 138.49-35.556 48.479-5.1045 101.15-4.6396 148.31 1.3047 44.062 5.5537 88.938 16.356 129.78 31.239 43.512 15.856 80.389 35.733 106.65 57.484 47.233 39.128 66.557 90.667 50.429 134.51-11.847 32.199-41.973 58.929-87.122 77.298-49.335 20.072-115.42 30.229-196.58 30.229zm-13.202-4.0889c161 2.1338 267.85-36.074 293.15-104.82 15.524-42.199-3.3379-92.029-49.227-130.04-51.194-42.408-141-76.065-234.37-87.835-102.78-12.956-214.47 0.34766-284.57 33.89-69.493 33.253-106.91 88.785-95.315 141.47 8.7476 39.767 43.09 74.306 99.314 99.886 65.892 29.978 157.08 45.942 271.03 47.45z" fill="#5971F7"/>
			
			
				<path d="m714.17 829.43c-10.197 0-20.714-0.2373-31.544-0.71387-79.044-3.4775-146.67-17.438-195.57-40.372-43.25-20.284-71.141-47.433-78.536-76.445-8.0459-31.564 8.6133-62.511 45.707-84.904 58.664-35.416 160.63-41.906 235.66-32.635 83.001 10.262 161.48 40.867 199.94 77.972 27.147 26.193 36.057 56.722 24.442 83.758-10.051 23.399-34.566 42.499-70.896 55.236-34.338 12.038-77.696 18.104-129.2 18.104zm-88.42-234.89c-61.333 0-127 10.242-169.46 35.877-35.478 21.419-51.478 50.757-43.898 80.492 12.12 47.546 90.211 105.88 270.41 113.81 10.386 0.45703 20.521 0.68262 30.358 0.68262 105.21 0.0029297 178.06-25.803 197.43-70.893 10.921-25.423 2.3389-54.326-23.545-79.3-37.873-36.542-115.46-66.719-197.65-76.881-19.771-2.4434-41.425-3.7881-63.644-3.7881z" fill="#5971F7"/>
			
			
				<path d="m716.84 771.15c-10.472 0-21.318-0.35645-32.484-1.0732-55.107-3.5391-103.39-14.27-139.64-31.031-32.854-15.193-54.474-34.88-60.88-55.432-5.7754-18.529 1.2075-36.761 19.664-51.336 17.487-13.811 45.474-23.854 80.934-29.045 32.701-4.7871 70.064-5.0869 105.21-0.83887 70.706 8.5439 136 35.121 162.47 66.134 14.624 17.134 18.105 35.702 9.8037 52.284-8.4365 16.85-28.112 30.409-56.899 39.213-24.067 7.3604-54.134 11.125-88.178 11.125zm-32.229-5.0654c107.27 6.8867 160.08-19.795 173.73-47.063 7.5371-15.053 4.2451-32.062-9.2695-47.896-25.865-30.304-90.127-56.329-159.91-64.761-74.757-9.0352-150.09 2.9141-183.18 29.052-17.311 13.672-23.647 29.926-18.323 47.007 11.243 36.068 76.503 75.926 196.95 83.661z" fill="#5971F7"/>
			
			
				<path d="m713.47 729.76c-8.9668 0-18.29-0.37402-27.9-1.1289-83.452-6.5547-130.85-34.917-140.8-60.119-4.3242-10.948-2.0996-21.674 6.4346-31.02 10.348-11.332 29.833-19.739 56.351-24.312 24.695-4.2578 53.747-4.7871 81.805-1.4863 56.89 6.6914 107.87 28.481 123.98 52.991 7.124 10.841 7.7725 21.844 1.875 31.819-6.8662 11.614-21.965 20.821-43.664 26.625-16.439 4.3955-36.183 6.6309-58.074 6.6309zm-60.802-116.23c-44.597 0-83.253 9.9453-98.516 26.659-7.5381 8.2549-9.4453 17.29-5.668 26.854 5.1396 13.009 20.531 25.796 43.34 36.004 25.19 11.273 57.716 18.741 94.058 21.596 76.22 5.9902 115.44-12.514 125.88-30.175 5.0654-8.5703 4.4521-18.109-1.7764-27.586-15.504-23.593-65.303-44.653-121.1-51.216-12.271-1.4434-24.455-2.1357-36.22-2.1357z" fill="#5971F7"/>
			
			
				<path d="m706.55 698.69c-6.4297 0-13.146-0.30078-20.078-0.91895-44.022-3.9268-79.92-18.895-89.325-37.245-3.1279-6.1045-3.0332-12.285 0.27539-17.872 11.116-18.774 54.489-24.323 91.596-20.099 41.125 4.6826 76.628 20.768 84.418 38.245 2.8008 6.2861 2.1924 12.534-1.7607 18.068-8.9814 12.572-33.582 19.821-65.125 19.821zm-41.497-73.512c-31.22 0-57.027 7.418-64.189 19.513-2.6094 4.4082-2.6621 9.1211-0.15625 14.011 7.0879 13.83 37.062 30.709 86.12 35.085 44.983 4.0146 73.396-5.7686 81.593-17.243 3.126-4.3779 3.585-9.126 1.3613-14.114-7.1328-16.007-42.049-31.439-81.217-35.899-8.0293-0.91406-15.931-1.3516-23.512-1.3516z" fill="#5971F7"/>
			
			
				<path d="m697.89 674.44c-3.4375 0-7.0254-0.1748-10.717-0.53516-20.172-1.9648-37.544-8.9697-43.229-17.431-1.9219-2.8613-2.4932-5.8652-1.6494-8.6865 3.2764-10.963 26.313-14.545 46.328-12.36 19.879 2.1738 41.279 10.248 43.719 21.474 0.66016 3.0381-0.18164 5.9834-2.4355 8.5166-5.1104 5.7451-17.14 9.0225-32.016 9.0225zm-20.891-35.654c-16.095 0-29.03 3.9814-30.873 10.147-0.49609 1.6611-0.11328 3.4482 1.1377 5.3105 4.9756 7.4053 21.547 13.854 40.298 15.681 20.96 2.0391 34.873-2.126 39.355-7.165 1.4082-1.583 1.9033-3.2217 1.5156-5.0088-1.7119-7.877-19.766-16.107-40.246-18.347-3.8271-0.41895-7.5879-0.61816-11.188-0.61816z" fill="#5971F7"/>
			
		
		
			
				
					<rect transform="matrix(.030274 -.99954 .99954 .030274 -120.82 1444.4)" x="552.38" y="782.46" width="263.21" height="3.9999" fill="#5971F7"/>
			
			
				
					<rect transform="matrix(.50468 -.86331 .86331 .50468 -224.21 1077.5)" x="824.86" y="573.21" width="4.0003" height="321.82" fill="#5971F7"/>
			
			
				
					<rect transform="matrix(.17168 -.98515 .98515 .17168 11.561 1364.7)" x="815.31" y="544.14" width="4.0009" height="262.63" fill="#5971F7"/>
			
			
				
					<rect transform="matrix(.9924 -.12307 .12307 .9924 -73.263 99.586)" x="687.32" y="640.81" width="164.26" height="3.9992" fill="#5971F7"/>
			
			
				
					<rect transform="matrix(.72375 -.69006 .69006 .72375 -233.92 667.22)" x="677.08" y="623.78" width="78.628" height="3.9993" fill="#5971F7"/>
			
			
				
					<rect transform="matrix(.77671 -.62986 .62986 .77671 -242.3 554.02)" x="658.24" y="574.77" width="4.0005" height="87.963" fill="#5971F7"/>
			
			
				
					<rect transform="matrix(.31776 -.94817 .94817 .31776 -182.72 991.22)" x="595.44" y="527.13" width="4.0004" height="190.91" fill="#5971F7"/>
			
			
				
					<rect transform="matrix(.034068 -.99942 .99942 .034068 -135.46 1154.9)" x="527.73" y="489.22" width="4.0004" height="316.6" fill="#5971F7"/>
			
			
				
					<rect transform="matrix(.93995 -.34131 .34131 .93995 -214.17 217.32)" x="321.78" y="715.33" width="377.5" height="4" fill="#5971F7"/>
			
		
	
	
		
			<path d="m673.62 255.56c-0.084961 0-0.1709-0.0073242-0.25488-0.021973l-49.623-8.5596c-0.70801-0.12207-1.2305-0.72949-1.2451-1.4482-0.013672-0.71875 0.4834-1.3467 1.1865-1.4966l52.204-11.156c0.21094-0.043945 0.42676-0.043945 0.63574 0.0019531l44.796 9.8579c0.69141 0.15186 1.1816 0.76611 1.1777 1.4736-0.0039063 0.70703-0.50195 1.3154-1.1943 1.46l-47.377 9.8579c-0.10059 0.020996-0.20313 0.03125-0.30566 0.03125zm-41.71-10.217 41.684 7.1899 40.237-8.3721-37.635-8.2822-44.286 9.4644z" fill="#75EEF5"/>
		
		
			<path d="m690.67 251.16c-0.083984 0-0.16895-0.0068359-0.25391-0.021484l-47.904-8.166c-0.81641-0.13916-1.3662-0.91406-1.2266-1.7305 0.13867-0.81689 0.92285-1.3667 1.7305-1.2266l47.904 8.166c0.81641 0.13916 1.3662 0.91406 1.2266 1.7305-0.12402 0.73145-0.75879 1.248-1.4766 1.248z" fill="#75EEF5"/>
		
		
			<path d="m706.42 247.09c-0.083008 0-0.16699-0.0068359-0.25098-0.020996l-46.299-7.8066c-0.81738-0.1377-1.3682-0.91162-1.2305-1.7285s0.91699-1.3687 1.7285-1.2295l46.299 7.8066c0.81738 0.1377 1.3682 0.91162 1.2305 1.7285-0.12402 0.73242-0.75879 1.2505-1.4775 1.2505z" fill="#75EEF5"/>
		
		
			<path d="m656.93 252.68c-0.67676 0-1.291-0.46094-1.457-1.1475-0.19531-0.80518 0.2998-1.6157 1.1045-1.811l45.596-11.044c0.81152-0.19727 1.6172 0.30029 1.8115 1.105 0.19531 0.80518-0.2998 1.6157-1.1045 1.811l-45.596 11.044c-0.11914 0.028808-0.23828 0.04248-0.35449 0.04248z" fill="#75EEF5"/>
		
		
			<path d="m640.39 249.83c-0.68555 0-1.3037-0.47217-1.4619-1.168-0.18359-0.80762 0.32227-1.6113 1.1299-1.7954l47.786-10.866c0.81641-0.18604 1.6123 0.32373 1.7959 1.1304 0.18359 0.80762-0.32227 1.6113-1.1299 1.7954l-47.786 10.866c-0.1123 0.025391-0.22461 0.037598-0.33398 0.037598z" fill="#75EEF5"/>
		
	
	
		
			<path d="m672.5 258.16c-0.1123 0-0.22461-0.012695-0.33691-0.038086l-48.5-11.163c-0.68066-0.15674-1.1631-0.76318-1.1631-1.4619v-66c0-0.69873 0.48242-1.3052 1.1631-1.4619l48.5-11.163c0.44727-0.10205 0.91309 0.003418 1.2715 0.28809 0.35742 0.28467 0.56543 0.7168 0.56543 1.1738v88.326c0 0.45703-0.20801 0.88916-0.56543 1.1738-0.26855 0.21338-0.59863 0.32617-0.93457 0.32617zm-47-13.857 45.5 10.473v-84.558l-45.5 10.473v63.612z" fill="#75EEF5"/>
		
		
			<path d="m672.5 228.72c-0.039062 0-0.077148-0.0014648-0.11719-0.0043945l-48.5-3.7212c-0.8252-0.063477-1.4434-0.78418-1.3799-1.6104 0.0625-0.82666 0.78125-1.4434 1.6104-1.3809l48.5 3.7212c0.8252 0.063477 1.4434 0.78418 1.3799 1.6104-0.05957 0.78711-0.7168 1.3853-1.4932 1.3853z" fill="#75EEF5"/>
		
		
			<path d="m624 203c-0.77637 0-1.4336-0.59814-1.4932-1.3853-0.063477-0.82617 0.55469-1.5469 1.3799-1.6104l48.5-3.7212c0.81348-0.060059 1.5479 0.5542 1.6104 1.3809 0.063477 0.82617-0.55469 1.5469-1.3799 1.6104l-48.5 3.7212c-0.039062 0.0029297-0.078125 0.0043945-0.11719 0.0043945z" fill="#75EEF5"/>
		
		
			<path d="m653.06 253.69c-0.82812 0-1.5-0.67139-1.5-1.5v-79.376c0-0.82861 0.67188-1.5 1.5-1.5s1.5 0.67139 1.5 1.5v79.376c0 0.82861-0.67188 1.5-1.5 1.5z" fill="#75EEF5"/>
		
		
			<path d="m637.19 250.04c-0.82812 0-1.5-0.67139-1.5-1.5v-72.072c0-0.82861 0.67188-1.5 1.5-1.5s1.5 0.67139 1.5 1.5v72.072c0 0.82861-0.67188 1.5-1.5 1.5z" fill="#75EEF5"/>
		
	
	
		
			<path d="m672.5 258.16c-0.33594 0-0.66602-0.11279-0.93457-0.32617-0.35742-0.28467-0.56543-0.7168-0.56543-1.1738v-88.326c0-0.45703 0.20801-0.88916 0.56543-1.1738 0.3584-0.28467 0.82324-0.39014 1.2715-0.28809l48.5 11.163c0.68066 0.15674 1.1631 0.76318 1.1631 1.4619v66c0 0.69873-0.48242 1.3052-1.1631 1.4619l-48.5 11.163c-0.1123 0.025391-0.22461 0.038086-0.33691 0.038086zm1.5-87.942v84.558l45.5-10.473v-63.612l-45.5-10.473z" fill="#FF70EA"/>
		
		
			<path d="m672.5 228.72c-0.77637 0-1.4336-0.59814-1.4932-1.3853-0.063477-0.82617 0.55469-1.5469 1.3799-1.6104l48.5-3.7212c0.81152-0.064941 1.5479 0.5542 1.6104 1.3809 0.063477 0.82617-0.55469 1.5469-1.3799 1.6104l-48.5 3.7212c-0.039062 0.0029297-0.078125 0.0043945-0.11719 0.0043945z" fill="#FF70EA"/>
		
		
			<path d="m721 203c-0.039062 0-0.077148-0.0014648-0.11719-0.0043945l-48.5-3.7212c-0.8252-0.063477-1.4434-0.78418-1.3799-1.6104 0.0625-0.82666 0.7793-1.4385 1.6104-1.3809l48.5 3.7212c0.8252 0.063477 1.4434 0.78418 1.3799 1.6104-0.05957 0.78711-0.7168 1.3853-1.4932 1.3853z" fill="#FF70EA"/>
		
		
			<path d="m691.94 253.69c-0.82812 0-1.5-0.67139-1.5-1.5v-79.376c0-0.82861 0.67188-1.5 1.5-1.5s1.5 0.67139 1.5 1.5v79.376c0 0.82861-0.67188 1.5-1.5 1.5z" fill="#FF70EA"/>
		
		
			<path d="m707.81 250.04c-0.82812 0-1.5-0.67139-1.5-1.5v-72.072c0-0.82861 0.67188-1.5 1.5-1.5s1.5 0.67139 1.5 1.5v72.072c0 0.82861-0.67188 1.5-1.5 1.5z" fill="#FF70EA"/>
		
	
</g>
<g id="Layer_x5F_Gate">
	
		<path d="m959.94 309.33 0.059998 599.67-32.06 14.91v0.090027l-7.94-0.77002v-565.9c0-73.53-25.04-141.04-66.49-191.93-41.45-50.9-99.3-85.18-164.93-92.25-8.91-0.95996-17.75-1.4-26.5-1.34-138.89 0.89001-254.14 126.97-254.14 285.52v519.36l-19.94-1.93v-565.43c0-20.98 2.25-41.39 6.51-61.02 28.22-130.16 144.85-225.96 281.12-224.97 8.54 0.059998 17.15 0.5 25.83 1.34 73.3 7.08 137.92 41.42 184.22 92.4 46.29 50.98 74.26 118.6 74.26 192.25z" fill="#5971F7"/>
	
	
		<path d="m927.94 307.33v616.67l-7.94-0.77002-32-3.09v-564.81c0-73.53-25.04-141.04-66.49-191.93-40.29-49.47-96.07-83.24-159.43-91.59-1.83-0.23999-3.66-0.46002-5.5-0.66003-116.54-12.55-220.95 63.77-262.07 177.16-11.96 32.96-18.57 69.06-18.57 107.02v515.36l-19.94-1.93v-561.43c0-168.8 145.44-300.87 313.46-284.65 2.06 0.20001 4.12 0.41998 6.17 0.65997 70.75 8.37 133.05 42.19 178.05 91.74 46.29 50.98 74.26 118.6 74.26 192.25z" fill="#fff"/>
	
	<g opacity=".22">
		<path d="m927.94 307.33v616.67l-7.94-0.77002-32-3.09v-564.81c0-73.53-25.04-141.04-66.49-191.93-40.29-49.47-96.07-83.24-159.43-91.59-1.83-0.23999-3.66-0.46002-5.5-0.66003-116.54-12.55-220.95 63.77-262.07 177.16-11.96 32.96-18.57 69.06-18.57 107.02v519.36l-19.94-1.93v-565.43c0-168.8 145.44-300.87 313.46-284.65 2.06 0.20001 4.12 0.41998 6.17 0.65997 70.75 8.37 133.05 42.19 178.05 91.74 46.29 50.98 74.26 118.6 74.26 192.25z"/>
	</g>
	
		<path d="m937.39 568.36c0 9.671-9.5046 16.478-18.661 13.365-11.163-3.7953-22.326-7.5906-33.488-11.386-1.8629-0.63336-3.2004-2.275-3.4445-4.2273-2.6336-21.069-5.2672-42.138-7.9009-63.207-0.89545-7.1636 4.1448-11.774 11.2-10.245 16.081 3.4843 32.163 6.9686 48.244 10.453 2.3636 0.51212 4.0501 2.6031 4.0501 5.0216v60.226z" fill="#5971F7"/>
	
	<g opacity=".22">
		<path d="m937.39 567.57c0 10.059-9.8862 17.14-19.41 13.902-10.907-3.7083-21.813-7.4165-32.72-11.125-1.8746-0.63739-3.2205-2.2892-3.4661-4.2539-2.6309-21.047-5.2618-42.094-7.8927-63.142-0.89856-7.1885 4.1591-11.815 11.239-10.281 16.058 3.4792 32.116 6.9585 48.174 10.438 2.3784 0.51532 4.0756 2.6195 4.0756 5.0532v59.408z"/>
	</g>
	
		<path d="m923.44 583.91-42.532-9.2151c-4.6138-0.99963-7.9059-5.0814-7.9059-9.8023v-63.013c0-3.1727 2.9291-5.5352 6.0299-4.8633l45.211 9.7958c2.3071 0.49988 3.9533 2.5409 3.9533 4.9015v68.36c0 2.503-2.3109 4.3668-4.7572 3.8368z" fill="#5971F7"/>
	
	
		<path d="m918.08 526.78c0 5.8138-4.7467 10.285-10.266 10.285-0.80042 0-1.6191-0.09198-2.447-0.29431l-1.895-0.45996-11.582-2.815c-0.92914-0.22998-1.8123-0.57947-2.6126-1.0394-3.1737-1.7846-5.2343-5.1699-5.2343-8.9507 0-5.8138 4.7467-10.285 10.266-10.285 0.80035 0 1.619 0.092041 2.447 0.29437l4.8939 1.1866 8.5828 2.0883c1.9134 0.46912 3.5876 1.4534 4.8939 2.7965 1.8398 1.8582 2.9529 4.4247 2.9529 7.1937z" fill="#FF70EA"/>
	
	
		<polygon points="883.12 542.29 878.52 541.04 878.52 535.6 883.12 536.85" fill="#FF70EA"/>
	
	
		<polygon points="883.12 550.57 878.52 549.31 878.52 543.88 883.12 545.13" fill="#FF70EA"/>
	
	
		<polygon points="883.12 558.85 878.52 557.59 878.52 552.16 883.12 553.41" fill="#FF70EA"/>
	
	
		<polygon points="883.12 567.13 878.52 565.87 878.52 560.44 883.12 561.69" fill="#FF70EA"/>
	
	
		<polygon points="890.48 544.13 885.88 542.88 885.88 537.44 890.48 538.69" fill="#FF70EA"/>
	
	
		<polygon points="890.48 552.41 885.88 551.15 885.88 545.72 890.48 546.97" fill="#FF70EA"/>
	
	
		<polygon points="897.84 545.97 893.24 544.71 893.24 539.28 897.84 540.53" fill="#FF70EA"/>
	
	
		<polygon points="905.2 547.81 900.6 546.55 900.6 541.12 905.2 542.37" fill="#FF70EA"/>
	
	
		<polygon points="912.56 549.65 907.96 548.39 907.96 542.96 912.56 544.21" fill="#FF70EA"/>
	
	
		<polygon points="912.56 558.85 907.96 557.59 907.96 552.16 912.56 553.41" fill="#FF70EA"/>
	
	
		<polygon points="912.56 568.05 907.96 566.79 907.96 561.36 912.56 562.61" fill="#FF70EA"/>
	
	
		<polygon points="919.92 551.49 915.32 550.23 915.32 544.8 919.92 546.05" fill="#FF70EA"/>
	
	
		<polygon points="919.92 560.69 915.32 559.43 915.32 554 919.92 555.25" fill="#FF70EA"/>
	
	
		<polygon points="919.92 569.89 915.32 568.63 915.32 563.2 919.92 564.45" fill="#FF70EA"/>
	
	
		<polygon points="897.84 570.22 893.24 569.13 893.24 547.56 897.84 548.65" fill="#75EEF5"/>
	
	
		<polygon points="905.2 572.06 900.6 570.97 900.6 549.4 905.2 550.49" fill="#75EEF5"/>
	
	
		<polygon points="890.48 560.69 885.88 559.43 885.88 554 890.48 555.25" fill="#FF70EA"/>
	
	
		<polygon points="890.48 563.53 890.48 568.97 885.88 567.71 885.88 562.28 889.48 563.26" fill="#FF70EA"/>
	
	
		<path d="m915.12 519.59-11.655 16.724-11.582-2.815c-0.92914-0.22998-1.8123-0.57947-2.6126-1.0394l12.373-17.754 8.5828 2.0883c1.9134 0.46912 3.5876 1.4534 4.8939 2.7965z" fill="#fff"/>
	
	<g opacity=".22">
		<polygon points="883.12 536.86 883.12 542.29 878.52 541.03 878.52 540.36 882.2 541.37 882.2 536.61"/>
	
	
		<polygon points="890.48 538.7 890.48 544.13 885.88 542.87 885.88 542.2 889.56 543.21 889.56 538.45"/>
	
	
		<polygon points="890.48 546.98 890.48 552.41 885.88 551.15 885.88 550.48 889.56 551.49 889.56 546.73"/>
	
	
		<polygon points="883.12 545.14 883.12 550.57 878.52 549.31 878.52 548.64 882.2 549.65 882.2 544.89"/>
	
	
		<polygon points="883.12 553.41 883.12 558.85 878.52 557.59 878.52 556.92 882.2 557.93 882.2 553.17"/>
	
	
		<polygon points="890.48 555.25 890.48 560.69 885.88 559.43 885.88 558.76 889.56 559.77 889.56 555.01"/>
	
	
		<polygon points="890.48 563.53 890.48 568.97 885.88 567.71 885.88 566.98 889.48 567.97 889.48 563.26"/>
	
	
		<polygon points="883.12 561.69 883.12 567.13 878.52 565.87 878.52 565.2 882.2 566.21 882.2 561.45"/>
	
	
		<polygon points="897.84 540.54 897.84 545.97 893.24 544.71 893.24 544.04 896.92 545.05 896.92 540.29"/>
	
	
		<polygon points="905.2 542.38 905.2 547.81 900.6 546.55 900.6 545.88 904.28 546.89 904.28 542.13"/>
	
	
		<polygon points="912.56 544.22 912.56 549.65 907.96 548.39 907.96 547.72 911.64 548.73 911.64 543.97"/>
	
	
		<polygon points="919.92 546.06 919.92 551.49 915.32 550.23 915.32 549.56 919 550.57 919 545.81"/>
	
	
		<polygon points="919.92 564.45 919.92 569.89 915.32 568.63 915.32 567.96 919 568.97 919 564.21"/>
	
	
		<polygon points="912.56 562.61 912.56 568.05 907.96 566.79 907.96 566.12 911.64 567.13 911.64 562.37"/>
	
	
		<polygon points="912.56 553.41 912.56 558.85 907.96 557.59 907.96 556.92 911.64 557.93 911.64 553.17"/>
	
	
		<polygon points="919.92 555.25 919.92 560.69 915.32 559.43 915.32 558.76 919 559.77 919 555.01"/>
	</g>
</g>

	<g id="Head">
		
			<path d="m508.74 303.78c-0.48999 10.59-1.85 21.53-3.84 32.21-0.99005 5.34-2.14 10.61-3.41 15.74-2.49 10.05-5.73 26.7-13.02 34.18-6.33-15.71-18.68-19.48-33.91-25.44-24.05-9.41-46.22-22.84-70.5-31.56-15.67-5.63-33.49-11.56-50.44-10.4-3.86 0.25995-7.51 1.88-8.6 1.68-2.81-8.29 0.21997-21.27 1.88-29.33 2.41-11.76 6.14-23.21 12.04-33.63 0.87-1.54 1.79-3.06 2.76-4.56 9.76-15.02 23.07-27.21 39.31-34.96 28.27-13.49 64.39-16.46 92.49-0.89996 29.07 16.11 36.66 56.34 35.24 86.97z" fill="#fff"/>
		
		<g opacity=".31">
			<path d="m508.74 303.78c-0.48999 10.59-1.85 21.53-3.84 32.21-0.99005 5.34-2.14 10.61-3.41 15.74-2.49 10.05-5.73 26.7-13.02 34.18-6.33-15.71-18.68-19.48-33.91-25.44-24.05-9.41-46.22-22.84-70.5-31.56-15.67-5.63-33.49-11.56-50.44-10.4-3.86 0.25995-7.51 1.88-8.6 1.68-2.81-8.29 0.21997-21.27 1.88-29.33 2.41-11.76 6.14-23.21 12.04-33.63 0.87-1.54 1.79-3.06 2.76-4.56 9.76-15.02 23.07-27.21 39.31-34.96 28.27-13.49 64.39-16.46 92.49-0.89996 29.07 16.11 36.66 56.34 35.24 86.97z" fill="#75EEF5"/>
		</g>
		<g opacity=".13">
			<path d="m419.01 230.71c-16.24 7.75-29.55 19.94-39.31 34.96-0.97003 1.5-1.89 3.02-2.76 4.56-5.9 10.42-9.63 21.87-12.04 33.63-1.01 4.89-2.52 11.59-2.92 17.96-9.38-2.43-19-3.95-28.36-3.31-3.86 0.25995-7.51 1.88-8.6 1.68-2.81-8.29 0.21997-21.27 1.88-29.33 2.41-11.76 6.14-23.21 12.04-33.63 0.87-1.54 1.79-3.06 2.76-4.56 9.76-15.02 23.07-27.21 39.31-34.96 28.27-13.49 64.39-16.46 92.49-0.89996 1.65 0.91998 3.23 1.91 4.75 2.97-20.2-1.95-41.3 2.37-59.24 10.93z"/>
		</g>
		<g opacity=".49">
			<path d="m469.88 213.92c-26.18-9.79-57.05-6.05-81.87 5.79-16.24 7.75-29.55 19.94-39.31 34.96-0.97003 1.5-1.89 3.02-2.76 4.56-5.9 10.42-9.63 21.87-12.04 33.63-1.39 6.76-3.75 16.99-2.81 25-2.83 0.53998-5.22 1.49-6.07 1.33-2.81-8.29 0.21997-21.27 1.88-29.33 2.41-11.76 6.14-23.21 12.04-33.63 0.87-1.54 1.79-3.06 2.76-4.56 9.76-15.02 23.07-27.21 39.31-34.96 27.07-12.92 61.33-16.19 88.87-2.79z" fill="#FF70EA"/>
		</g>
		
			<path d="m504.9 335.99c-0.99005 5.34-2.14 10.61-3.41 15.74-2.49 10.05-5.73 26.7-13.02 34.18-0.18994-0.46997-0.38995-0.94-0.58997-1.39-6.49-14.55-18.55-18.27-33.32-24.05-24.05-9.41-46.22-22.84-70.5-31.56-15.67-5.63-33.49-11.56-50.44-10.4-3.86 0.25995-7.51 1.88-8.6 1.68-2.81-8.29 0.21997-21.27 1.88-29.33 2.13-10.39 5.29-20.53 10.07-29.94 0.62006-1.24 1.28-2.47 1.97-3.69 10.84-5.21 23.21-5.48 35.21 1.15 20.86 11.53 30.53 34.86 51.56 46.14 12.03 6.44 24.24 9.75 37.33 13.13 10.79 2.78 24.24 2.71 33.89 8.5 4.33 2.6 6.76 5.9901 7.97 9.84z" fill="#5971F7"/>
		
		<g opacity=".22">
			<path d="m499.9 340.99c-0.99005 5.34-2.14 10.61-3.41 15.74-1.92 7.75-4.29 19.42-8.61 27.79-6.49-14.55-18.55-18.27-33.32-24.05-24.05-9.41-46.22-22.84-70.5-31.56-15.67-5.63-33.49-11.56-50.44-10.4-3.86 0.25995-7.51 1.88-8.6 1.68-2.81-8.29 0.21997-21.27 1.88-29.33 2.13-10.39 5.29-20.53 10.07-29.94 10.08-3.89 21.28-3.56 32.18 2.46 20.86 11.53 30.53 34.86 51.56 46.14 12.03 6.44 24.24 9.75 37.33 13.13 10.79 2.78 24.24 2.71 33.89 8.5 4.33 2.6 6.76 5.9901 7.97 9.84z"/>
		</g>
		
			<path d="m477.03 249.2c-7.1195-2.647-10.965-14.778-3.9726-19.323 6.9961-4.547 14.186 4.4462 15.421 10.891 2.1752 11.351-10.983 13.777-16.565 4.8899" fill="#fff"/>
		
		
			<path d="m488.05 261.4c2.4469 5.8342 3.8143 11.982 4.7506 18.229 0.5097 3.4007-0.25858 17.864 4.1853 18.752 8.0762 1.6133 4.8901-20.573 4.4485-24.858-0.40427-3.9233-2.3875-18.797-9.2365-17.653-2.0752 0.34674-4.2927 4.9649-4.1479 5.53z" fill="#fff"/>
		
	</g>
	<g id="Leg_L">
		
			<path d="m260.13 554.98c0.01001 0.099976 0.01001 0.19 0.02002 0.28998-0.080017-0.059998-0.090027-0.15997-0.02002-0.28998z" fill="#5971F7"/>
		
		
			<path d="m388.26 723.7c-1.69 16.22-2.82 31.86-4.89 47.61-0.96997 7.45-2.16 14.91-3.71 22.47-7.75 37.81-10.79 73.23-31.23 106.74-8.07 13.23-16.88 29.59-33.08 33.23-24.21 5.43-50.55 8.45-69.23-10.02-5.42-5.34-10.78-7.56-17.04-11.61-6.41-4.15-10.65-10.54-16.38-15.36-4.49-3.78-9.59-7.14-15.07-8.63-6.69-1.82-9.24 0.82996-12.52-5.68-3.85-7.64-1.41-16.57 2.25-24.92 2.66-6.07 5.97-11.83 7.99-16.57 4.88-11.5 11.42-22.48 16.88-33.82 3.37-6.98 6.32-14.1 8.23-21.56 2.58-10.05 1.02-23.66 13.34-27.13-1.87-5.7401-2.35-15.6 6.16-16.17 0.44-3.59-1.05-6.6-1.62-10.15-1.01-6.37-0.48004-7.08 1.58-13.46 4.66-14.4-1.02-29.47-3.29-44.12-3.48-22.49-8.93-43.42 0.63-65.19 7.72-17.58 24.31-33.36 22.89-54.09 1 0.79004 12.05-2.53 18.12-6.84 3.37-2.39 5.87-4.72 9.59-6.57 9.94-4.96 23.73-10.82 34.4-13.32 42.05-9.84 67.03 29.67 74.84 65.19 0.84003 3.78 1.48 7.51 1.92 11.13 4.7 38.47-6.78 80.59-10.76 118.84z" fill="#5971F7"/>
		
		
			<path d="m392.78 551.12c-0.77127-0.77124-1.5425-1.5425-2.3138-2.3137"/>
		
		<g opacity=".22">
			<path d="m260.13 554.98c0.01001 0.099976 0.01001 0.19 0.02002 0.28998-0.080017-0.059998-0.090027-0.15997-0.02002-0.28998z"/>
		
		
			<path d="m397.1 593.73c-3.49 5.97-7.77 12.01-12.84 18.43-17.2 21.76-37.46 38.6-45.54 65.46-4.21 14.01-25.48 17.58-26.8 33.01 10.01 4.47 5.91 17.13 3.85 24.8-2.77 10.34 4.49 20.72 0.88 31.45-3.12 9.29-7.4 5.47-13.56 8.64-7.23 3.71-2.7401 7.25-2.05 15.46 0.79004 9.4 0.20001 20.29-2.5099 29.32-6.13 20.51-14.28 12.22-22.82-2.09-0.26001 15.14-6.44 29.35-23.99 28.2-6.45-0.41998-12.24-2.45-16.13-7.55-6.11-8-3.16-21.1-8.89-28.58-4.1-5.35-9.17-4.74-14.47-3.14 3.37-6.98 6.32-14.1 8.23-21.56 1.98-7.72 1.52-17.53 6.78-23.25 1.59-1.72 3.7-3.08 6.56-3.8799-1.87-5.7401-2.35-15.6 6.16-16.17 0.44-3.59-1.05-6.6-1.62-10.15-1.01-6.37-0.48004-7.08 1.58-13.46 4.66-14.4-1.02-29.47-3.29-44.12-3.48-22.49-8.93-43.42 0.63-65.19 7.72-17.58 24.31-33.36 22.89-54.09 0.48999 0.39001 3.38-0.20996 6.92-1.42 3.7-1.27 8.1-3.22 11.2-5.42 3.37-2.39 5.87-4.72 9.59-6.57 9.94-4.96 23.73-10.82 34.4-13.32 42.05-9.84 67.03 29.67 74.84 65.19z"/>
		
		
			<path d="m271.02 727.11c3.29 6.36 7.28 15.56 3.01 22.85-4.45 7.57-7.19 2.41-15.22 1.62 2.37 4.7 5.6 16.01 2.14 20.88-5.06 7.12-7.51-1.03-11.62-5.98-2.81-3.38-4.85-7.54-9.84-8.05-4.19-0.42999-7.81 4.19-11.69 3.95-0.19-0.01001-0.38-0.030029-0.56-0.050049 1.59-1.72 3.7-3.08 6.56-3.8799-1.87-5.7401-2.35-15.6 6.16-16.17 0.44-3.59-1.05-6.6-1.62-10.15-1.01-6.37-0.48004-7.08 1.58-13.46 4.66-14.4-1.02-29.47-3.29-44.12-3.48-22.49-8.93-43.42 0.63-65.19 7.72-17.58 24.31-33.36 22.89-54.09 0.48999 0.39001 3.38-0.20996 6.92-1.42 0.26001 0.10999 0.51001 0.22998 0.77002 0.35999-7.5 11-12.74 22.06-14.91 35.49-2.84 17.51-9.54 36.06-9.15 53.97 0.40997 18.43 10.39 25.91 22.2 37.77 5.09 5.12 6.57 10.49 9.57 16.22 1.64 3.13-0.080017 3.13 2.4 5.36 4.76 4.27 14.67 2.16 19.61 7.81 19.25 22-19.23 14.42-26.54 16.28z"/>
		</g>
		
			<path d="m383.37 771.31c-0.96997 7.45-2.16 14.91-3.71 22.47-7.75 37.81-10.79 73.23-31.23 106.74-8.07 13.23-16.88 29.59-33.08 33.23-24.21 5.43-50.55 8.45-69.23-10.02-5.42-5.34-10.78-7.56-17.04-11.61-6.41-4.15-10.65-10.54-16.38-15.36-4.49-3.78-9.59-7.14-15.07-8.63-6.69-1.82-9.24 0.82996-12.52-5.68-3.85-7.64-1.41-16.57 2.25-24.92 0.71002 1.09 1.3 2.06 1.75 2.8 10.3 17.12 27.9 26.51 47.24 30.91 13.67 3.1 29.93 3.42 43.95 4.51 12.49 0.97998 26.49-0.67004 36.78-8.41 28.7-21.58 34.16-62.61 50.18-92.15 4.59-8.47 10.37-16.17 16.11-23.88z" fill="#75EEF5"/>
		
		
			<path d="m226.27 740.93c-0.786-3.5485-1.7552-8.0982-1.7552-8.0983-1.0157-4.7739-1.7202-8.2444-2.1495-10.318-1.7652-8.5278-4.4489-20.362-8.5052-34.97-1.1483-4.1354-4.0524-7.568-7.9411-9.3843-0.14807-0.069153-0.29616-0.13831-0.44423-0.20746-22.649-10.578-49.609-3.3445-63.937 17.139-2.2759 3.2537-4.6103 6.6505-6.9889 10.184-19.311 28.685-35.51 54.728-47.488 90.188-7.8297 23.18-21.754 51.36-2.0734 71.404 9.055 9.2223 19.414 14.088 29.446 12.63 7.8638-1.143 12.955-5.9885 19.263-12.08 6.1125-5.9026 15.599-16.796 22.308-34.417 9.6667 16.333 19.333 32.667 29 49 6.4388-0.59692 26.81-3.3217 43-20 26.751-27.559 16.571-66.932 16-69-1.0057-2.7053-15.385-41.471-17.733-52.071z" fill="#5971F7"/>
		
		<g opacity=".36">
			<path d="m228 862c-6.06 6.24-12.69 10.52-18.97 13.47-7.76 3.66-14.98 5.27-19.84 6.02-1.72 0.26001-3.14 0.40997-4.19 0.51001-9.67-16.33-19.33-32.67-29-49-6.71 17.62-16.2 28.51-22.31 34.42-6.31 6.09-11.4 10.93-19.26 12.08-1.72 0.25-3.44 0.31-5.17 0.19-2.82-0.17999-5.65-0.83002-8.44-1.9-1.5-0.58002-3-1.28-4.48-2.1-3.92-2.16-7.75-5.15-11.36-8.82-4.35-4.43-7.06-9.26-8.55-14.35-5.27-17.92 4.53-39 10.63-57.06 5.76-17.08 12.52-31.98 20.13-46.04 7.4-13.7 15.62-26.59 24.53-39.95 0.94-1.39 1.88-2.79 2.83-4.2 2.15-3.21 4.28-6.3 6.35-9.28 0.20996-0.28998 0.41998-0.59003 0.63-0.90002 14.33-20.48 41.29-27.72 63.94-17.14 0.15002 0.069946 0.30005 0.13995 0.45001 0.20996 3.73 1.74 6.57 4.99 7.8 8.92 0.050049 0.15002 0.10004 0.30005 0.14001 0.46002 4.05 14.61 6.74 26.44 8.5 34.97 0.16003 0.75995 0.35004 1.7 0.58002 2.8199 0.40997 1.96 0.92999 4.47 1.57 7.5 0 0 0.96997 4.55 1.76 8.1 2.34 10.6 16.72 49.36 17.73 52.07 0.57001 2.07 10.75 41.44-16 69z" fill="#fff"/>
		</g>
		<g opacity=".21">
			<path d="m209.03 875.47c-10.5 4.95-20 6.15-24.03 6.53-9.67-16.33-19.33-32.67-29-49-6.71 17.62-16.2 28.51-22.31 34.42-6.31 6.09-11.4 10.93-19.26 12.08-1.72 0.25-3.44 0.31-5.17 0.19-2.82-0.17999-5.65-0.83002-8.44-1.9-5.49-2.11-10.86-5.86-15.84-10.92-4.35-4.43-7.06-9.26-8.55-14.35 0.66003 0.44 1.33 0.85004 2.02 1.22 1.56 3.18 3.69 6.24 6.53 9.13 4.98 5.06 10.35 8.81 15.84 10.92 7.57-2.57 15.02-6.35 21.18-10.79 11.87-8.54 14.53-16.3 31.57-50.25 2.57-5.13 4.98-9.86 7.23-14.25 6.37-2.08 13.43 0.32996 22.26 10.33 6.63 7.51 7.91 17.53 11.02 26.74 3.46 10.24 9.39 19.13 12.57 29.48 1.08 3.51 1.87 6.99 2.38 10.42z"/>
		</g>
		
			<path d="m189.19 881.49c-1.72 0.26001-3.14 0.40997-4.19 0.51001-9.67-16.33-19.33-32.67-29-49-6.71 17.62-16.2 28.51-22.31 34.42-6.31 6.09-11.4 10.93-19.26 12.08-1.72 0.25-3.44 0.31-5.17 0.19-2.82-0.17999-5.65-0.83002-8.44-1.9-1.5-0.58002-3-1.28-4.48-2.1 10.24-0.23004 18.79-3.95 25.94-12.02 10.01-11.28 17.86-25.72 24.95-38.93 1.91-3.55 7.97-30.51 14.14-21.89 3.4 4.74 9.56 11.36 10.17 17.2 0.99005 9.66 7.91 17.7 10.86 26.63 2.24 6.75 1.47 13.66 3 20.47 1.04 4.68 3.04 9.45 3.79 14.34z" fill="#75EEF5"/>
		
		
			<path d="m222.94 725.33c-6.57-11.13-15.74-19.24-26.96-27.75-7.3-5.53-14.58-12.66-23.37-11.22-15.91 2.63-29.46 11.83-40.89 23.11 0.94-1.39 1.88-2.79 2.83-4.2 2.15-3.21 4.28-6.3 6.35-9.28 0.20996-0.28998 0.41998-0.59003 0.63-0.90002 14.33-20.48 41.29-27.72 63.94-17.14 0.15002 0.069946 0.30005 0.13995 0.45001 0.20996 3.73 1.74 6.57 4.99 7.8 8.92 0.050049 0.15002 0.10004 0.30005 0.14001 0.46002 4.05 14.61 6.74 26.44 8.5 34.97 0.16003 0.75995 0.35004 1.7 0.58002 2.8199z" fill="#FF70EA"/>
		
		<g opacity=".21">
			<path d="m213.72 687.08c-2.1 6.38-5.25 15.56-9.42 26.47-13.26 34.68-20.74 44.57-43.5 88.95-2.25 4.39-4.66 9.12-7.23 14.25-17.04 33.95-19.7 41.71-31.57 50.25-6.16 4.44-13.61 8.22-21.18 10.79-5.49-2.11-10.86-5.86-15.84-10.92-2.84-2.89-4.97-5.95-6.53-9.13-9.26-18.94 1.91-42.44 8.61-62.28 5.76-17.08 12.52-31.98 20.13-46.04 7.72-11.07 16.43-23.86 27.36-44.15 0.85999-1.6 3.25-4.86 6.35-9.28 0.20996-0.28998 0.41998-0.59003 0.63-0.90002 14.33-20.48 41.29-27.72 63.94-17.14 0.15002 0.069946 0.30005 0.13995 0.45001 0.20996 3.73 1.74 6.57 4.99 7.8 8.92z"/>
		</g>
	</g>
	<g id="Leg_R">
		
			<path d="m468.12 784.62c-4.47 15.92-9.72 30.14-11.36 46.71-0.059998 0.55005-0.10999 1.1-0.16003 1.66-1.28 15.31-5.3 32.49-18.86 41.98-3.68 2.58-7.64 4.66-11.68 6.62-7.07 3.42-14.38 6.46-20.87 11.07-0.59003 0.41998-1.19 0.83002-1.79 1.22-0.38 0.26001-0.77002 0.51001-1.16 0.75-0.44 0.27997-0.89001 0.56-1.34 0.82001-0.29004 0.17999-0.58002 0.33997-0.87 0.50995-0.88 0.5-1.76 0.98004-2.65 1.4301-0.28003 0.12994-0.57001 0.26996-0.84998 0.40997-1.01 0.48999-2.03 0.94-3.05 1.35-0.45996 0.19-0.90997 0.37-1.37 0.54004-0.32001 0.12-0.64996 0.23999-0.97998 0.34998-0.26001 0.10004-0.52002 0.19-0.78998 0.27002-0.29004 0.099976-0.59003 0.20001-0.88 0.28998-0.56 0.16998-1.13 0.34003-1.69 0.48999-0.62 0.17004-1.24 0.32001-1.86 0.45001-0.28998 0.070007-0.58997 0.13-0.87994 0.19-0.89001 0.19-1.78 0.34003-2.67 0.45001-0.26001 0.039978-0.51001 0.070007-0.76996 0.099976-0.31 0.040039-0.63 0.070007-0.95001 0.10004-0.35999 0.029968-0.72003 0.059998-1.08 0.079956-0.35999 0.030029-0.71997 0.040039-1.08 0.050049-1.73 0.069946-3.45 0.0099487-5.14-0.17004-0.49005-0.059998-0.98004-0.12-1.46-0.19995-0.34998-0.050049-0.69-0.11005-1.04-0.17004-0.18005-0.029968-0.36005-0.070007-0.54004-0.099976-0.22998-0.049988-0.45996-0.10004-0.69-0.16003-0.33997-0.079956-0.69-0.15997-1.03-0.25-0.46002-0.12-0.92999-0.25995-1.39-0.39996-0.28998-0.090027-0.58002-0.17999-0.87-0.29004-0.64001-0.21997-1.27-0.45996-1.9-0.71997-0.20996-0.090027-0.40997-0.17999-0.60999-0.27002-0.28998-0.13-0.59003-0.26996-0.88-0.40997-0.37-0.16998-0.72998-0.35999-1.09-0.56-1.15-0.60999-2.26-1.3-3.34-2.07-0.21002-0.15002-0.40997-0.29999-0.62-0.45001-0.13-0.099976-0.26001-0.20001-0.39001-0.29999-0.27997-0.22003-0.56-0.44-0.83997-0.67999-0.33002-0.27002-0.66003-0.54999-0.98004-0.84003-0.32001-0.28998-0.63995-0.58997-0.95001-0.89001-0.26996-0.25995-0.53998-0.52997-0.81-0.81-0.039978-0.039978-0.079956-0.089966-0.12-0.12994-0.31-0.32001-0.60999-0.65002-0.90997-0.99005-0.29999-0.33997-0.59003-0.67999-0.88-1.04-0.23999-0.28998-0.47998-0.59003-0.71002-0.90002-0.19-0.23999-0.37-0.48999-0.54999-0.73999-0.77002-1.04-1.49-2.15-2.18-3.32-0.17999-0.28998-0.34998-0.57996-0.51001-0.88-0.67999-1.22-1.33-2.5-1.92-3.85-0.10999-0.22998-0.21002-0.46997-0.32001-0.71002-0.16998-0.38995-0.33002-0.78998-0.48999-1.19-4.02-10.09-7.49-22.05-9.18-33.04-0.17004-1.08-0.32001-2.15-0.45001-3.21-1.42-11.39 3.52-21.46 3.75-32.57 0.34003-16.92-9.44-30.71-6.19-47.92 3.37-17.78 12.65-37.64-2.46-52.1-6.96-6.66-10.02-8.06-12.27-18.73-4.15-19.65-4.17-42.11-3.93-62.12 0.19-16.51 5.0099-34.51 12.96-49.02 6.56-11.97 15.4-20.54 28.6-24.74 7.2-2.29 13.95-1.9901 21.28-3.02 6.03-0.84998 10.89-2.95 16.15-4.8 0.89996-0.32001 1.8-0.63 2.73-0.92004 1.03-0.31995 2.08-0.62994 3.17-0.90997 10.57-1.7 21.01 4.76 29.8 13.26 2.2599 2.17 4.41 4.48 6.42 6.82 9.11 10.61 15.48 21.84 16.73 24.09-5.02 18.49 7.83 35.96 11.66 53.62 0.049988 0.21002 0.099976 0.46002 0.14996 0.75 1.47 6.9901 2.08 14.03 2.58 21.07 0 0.049988 0 0.10004 0.01001 0.15002 0.42999 6.16 0.77997 12.32 1.55 18.47 1.29 10.46 4.98 19.96 5.74 30.48 1.7 23.39 0.34003 47.42-6 69.99z" fill="#75EEF5"/>
		
		
			<path d="m454.12 784.62c-4.47 15.92-9.72 30.14-11.36 46.71-0.059998 0.55005-0.10999 1.1-0.16003 1.66-1.28 15.31-5.3 32.49-18.86 41.98-3.68 2.58-7.64 4.66-11.68 6.62-7.07 3.42-14.38 6.46-20.87 11.07-0.59003 0.41998-1.19 0.83002-1.79 1.22-0.38 0.26001-0.77002 0.51001-1.16 0.75-0.44 0.27997-0.89001 0.56-1.34 0.82001-0.29004 0.17999-0.58002 0.33997-0.87 0.50995-0.88 0.5-1.76 0.98004-2.65 1.4301-0.28003 0.12994-0.57001 0.26996-0.84998 0.40997-1.01 0.48999-2.03 0.94-3.05 1.35-0.45996 0.19-0.90997 0.37-1.37 0.54004-0.32001 0.12-0.64996 0.23999-0.97998 0.34998-0.26001 0.10004-0.52002 0.19-0.78998 0.27002-0.29004 0.099976-0.59003 0.20001-0.88 0.28998-0.56 0.16998-1.13 0.34003-1.69 0.48999-0.62 0.17004-1.24 0.32001-1.86 0.45001-0.28998 0.070007-0.58997 0.13-0.87994 0.19-0.24005 0.049988-0.49005 0.099976-0.73004 0.14001-0.22998-0.049988-0.45996-0.10004-0.69-0.16003-0.33997-0.079956-0.69-0.15997-1.03-0.25-0.46002-0.12-0.92999-0.25995-1.39-0.39996-0.28998-0.090027-0.58002-0.17999-0.87-0.29004-0.64001-0.21997-1.27-0.45996-1.9-0.71997-0.20996-0.090027-0.40997-0.17999-0.60999-0.27002-0.28998-0.13-0.59003-0.26996-0.88-0.40997-0.37-0.16998-0.72998-0.35999-1.09-0.56-1.15-0.60999-2.26-1.3-3.34-2.07-0.21002-0.15002-0.40997-0.29999-0.62-0.45001-0.13-0.099976-0.26001-0.20001-0.39001-0.29999-0.27997-0.22003-0.56-0.44-0.83997-0.67999-0.33002-0.27002-0.66003-0.54999-0.98004-0.84003-0.32001-0.28998-0.63995-0.58997-0.95001-0.89001-0.26996-0.25995-0.53998-0.52997-0.81-0.81-0.039978-0.039978-0.079956-0.089966-0.12-0.12994-0.31-0.32001-0.60999-0.65002-0.90997-0.99005-0.29999-0.33997-0.59003-0.67999-0.88-1.04-0.23999-0.28998-0.47998-0.59003-0.71002-0.90002-0.19-0.23999-0.37-0.48999-0.54999-0.73999-0.77002-1.04-1.49-2.15-2.18-3.32-0.17999-0.28998-0.34998-0.57996-0.51001-0.88-0.67999-1.22-1.33-2.5-1.92-3.85-0.10999-0.22998-0.21002-0.46997-0.32001-0.71002-0.16998-0.38995-0.33002-0.78998-0.48999-1.19-4.02-10.09-7.49-22.05-9.18-33.04-0.17004-1.08-0.32001-2.15-0.45001-3.21-1.42-11.39 3.52-21.46 3.75-32.57 0.34003-16.92-9.44-30.71-6.19-47.92 3.37-17.78 12.65-37.64-2.46-52.1-6.96-6.66-10.02-8.06-12.27-18.73-4.15-19.65-4.17-42.11-3.93-62.12 0.19-16.51 5.0099-34.51 12.96-49.02 6.56-11.97 15.4-20.54 28.6-24.74 7.2-2.29 13.95-1.9901 21.28-3.02 6.03-0.84998 10.89-2.95 16.15-4.8 0.89996-0.32001 1.8-0.63 2.73-0.92004 6.75 2.09 13.21 6.78 18.97 12.35 2.2599 2.17 4.41 4.48 6.42 6.82 9.11 10.61 15.48 21.84 16.73 24.09-5.02 18.49 7.83 35.96 11.66 53.62 0.049988 0.21002 0.099976 0.46002 0.14996 0.75 1.47 6.9901 2.08 14.03 2.58 21.07 0 0.049988 0 0.10004 0.01001 0.15002 0.42999 6.16 0.77997 12.32 1.55 18.47 1.29 10.46 4.98 19.96 5.74 30.48 1.7 23.39 0.34003 47.42-6 69.99z" fill="#5971F7"/>
		
		<g opacity=".25">
			<path d="m414.68 512.95-6.35 3.39c1.93-1.73 4.05-2.92 6.35-3.39z"/>
		</g>
		<g opacity=".22">
			<path d="m430.27 794.49c-2.65 4.64-10.97 1.69-12.64 5.04-1.58 3.19 4.95 8.11 2.18 13.04-1.1 1.94-4.87 3.65-6.56 5.49-4.18 4.57-6.07 9.16-5.4 15.46 1.57 14.85 13.65 29.3 17.33 43.89 0.35999 1.4 0.65002 2.8 0.88 4.18-7.07 3.42-14.38 6.46-20.87 11.07-0.59003 0.41998-1.19 0.83002-1.79 1.22-0.38 0.26001-0.77002 0.51001-1.16 0.75-0.44 0.27997-0.89001 0.56-1.34 0.82001-0.29004 0.17999-0.58002 0.33997-0.87 0.50995-0.88 0.5-1.76 0.98004-2.65 1.4301-0.28003 0.12994-0.57001 0.26996-0.84998 0.40997-1.01 0.48999-2.03 0.94-3.05 1.35-0.45996 0.19-0.90997 0.37-1.37 0.54004-0.32001 0.12-0.64996 0.23999-0.97998 0.34998-0.26001 0.10004-0.52002 0.19-0.78998 0.27002-0.29004 0.099976-0.59003 0.20001-0.88 0.28998-0.56 0.16998-1.13 0.34003-1.69 0.48999-0.62 0.17004-1.24 0.32001-1.86 0.45001-0.28998 0.070007-0.58997 0.13-0.87994 0.19-0.89001 0.19-1.78 0.34003-2.67 0.45001-0.26001 0.039978-0.51001 0.070007-0.76996 0.099976-0.31 0.040039-0.63 0.070007-0.95001 0.10004-0.35999 0.029968-0.72003 0.059998-1.08 0.079956-0.35999 0.030029-0.71997 0.040039-1.08 0.050049-1.73 0.069946-3.45 0.0099487-5.14-0.17004-0.49005-0.059998-0.98004-0.12-1.46-0.19995-0.34998-0.050049-0.69-0.11005-1.04-0.17004-0.41003-0.079956-0.82001-0.15997-1.23-0.26001-0.33997-0.079956-0.69-0.15997-1.03-0.25-0.46002-0.12-0.92999-0.25995-1.39-0.39996-0.28998-0.090027-0.58002-0.17999-0.87-0.29004-0.64001-0.21997-1.27-0.45996-1.9-0.71997-0.20996-0.090027-0.40997-0.17999-0.60999-0.27002-0.28998-0.13-0.59003-0.26996-0.88-0.40997-0.37-0.16998-0.72998-0.35999-1.09-0.56-1.15-0.60999-2.26-1.3-3.34-2.07-0.21002-0.15002-0.40997-0.29999-0.62-0.45001-0.13-0.099976-0.26001-0.20001-0.39001-0.29999-0.27997-0.22003-0.56-0.44-0.83997-0.67999-0.33002-0.27002-0.66003-0.54999-0.98004-0.84003-0.32001-0.28998-0.63995-0.58997-0.95001-0.89001-0.26996-0.25995-0.53998-0.52997-0.81-0.81-0.039978-0.039978-0.079956-0.089966-0.12-0.12994-0.31-0.32001-0.60999-0.65002-0.90997-0.99005-0.29999-0.33997-0.59003-0.67999-0.88-1.04-0.23999-0.28998-0.47998-0.59003-0.71002-0.90002-0.19-0.23999-0.37-0.48999-0.54999-0.73999-0.77002-1.04-1.49-2.15-2.18-3.32-0.17999-0.28998-0.34998-0.57996-0.51001-0.88-0.67999-1.22-1.33-2.5-1.92-3.85-0.10999-0.22998-0.21002-0.46997-0.32001-0.71002-0.16998-0.38995-0.33002-0.78998-0.48999-1.19-3.66-9.18-6.86-19.9-8.67-30.03-0.19-1.01-0.36005-2.01-0.51001-3.01-0.17004-1.08-0.32001-2.15-0.45001-3.21-1.42-11.39 3.52-21.46 3.75-32.57 0.34003-16.92-9.44-30.71-6.19-47.92 3.37-17.78 12.65-37.64-2.46-52.1-6.96-6.66-10.02-8.06-12.27-18.73-0.95001-4.4901-1.68-9.13-2.24-13.85-1.91-15.94-1.88-32.83-1.69-48.27 0.19-16.51 5.0099-34.51 12.96-49.02 6.56-11.97 15.4-20.54 28.6-24.74 7.2-2.29 13.95-1.9901 21.28-3.02 6.03-0.84998 10.89-2.95 16.15-4.8 1.89-0.67004 3.83-1.3 5.9-1.83 10.57-1.7 21.01 4.76 29.8 13.26-0.090027 8.07-2.4901 16.28-6.6801 24.38-15.82 30.58-38.63 56.85-42.36 92.6-2.15 20.63 1.7 27.18 16.49 39.34 7.31 6 8.43 12.08 4.67 20.42-2.55 5.68-8.02 10.93-5.42 17.51 2.67 6.75 16.81 15.18 22.37 19.67 5.3 4.26 16.83 12.8 11.92 21.39z"/>
		
		
			<path d="m395.25 825.12c-3.18 4.04-14.16 5.91-18.06 7.33-10.16 3.67-20.36 7.44-30.34 11.57-3.63 1.5-6.98 3.15-10.2 4.97-0.19-1.01-0.36005-2.01-0.51001-3.01-0.17004-1.08-0.32001-2.15-0.45001-3.21-1.42-11.39 3.52-21.46 3.75-32.57 0.34003-16.92-9.44-30.71-6.19-47.92 3.37-17.78 12.65-37.64-2.46-52.1-6.96-6.66-10.02-8.06-12.27-18.73-0.95001-4.4901-1.68-9.13-2.24-13.85 9.79 11.69 24.52 14.76 38.01 20.82 5.46 2.45 7.73 4.76 11.03 9.25 0.98999 1.36 0.029968 3.29 1.36 4.71 4.32 4.64 13.82 2.47 18.22 7.36 12.42 13.78-19.47 16.02-22.28 24.11-2.56 7.35 5.3 6.39 10.9 9.29 8.13 4.21 15.81 10.58 18.94 19.43 3.24 9.17 2.72 20.48 3.67 30.16 0.63 6.46 3.48 16.85-0.88 22.39z"/>
		</g>
		
			
				
					<path d="m395.45 837.37c-2.5 6.9-6.91 13.02-9.58 19.97-5.84 15.17-11.49 30.12-13.62 46.47-1.86 14.28-2.51 28.1-8.03 42.09-5.12 12.98-11.03 27-25.24 29.57-1.02 0.19-2.09 0.32001-3.2 0.38-0.64001 0.040039-1.3 0.059998-1.97 0.049988-24.25-0.25-31.27-23.74-32.09-43.98-1.1299-28.02 4.92-56.23 2.44-84.19-1.79-20.06-3.48-38.66-3.21-51.26 3.44-21.42 14.29-40.27 37.66-40.08 2.47 0.019958 5.17 0.019958 7.99 0.049988 11.55 0.13995 25.1 0.90997 33.66 6.44 14.04 9.07 15.92 30.65 16.69 46.46 0.039978 0.78003 0.080017 1.54 0.10999 2.29 0.35999 8.04 1.17 18.09-1.61 25.74z" fill="#5971F7"/>
				
				<g opacity=".36">
					<path d="m395.45 837.37c-2.5 6.9-6.91 13.02-9.58 19.97-5.84 15.17-11.49 30.12-13.62 46.47-1.86 14.28-2.51 28.1-8.03 42.09-5.12 12.98-11.03 27-25.24 29.57-1.02 0.19-2.09 0.32001-3.2 0.38-0.64001 0.040039-1.3 0.059998-1.97 0.049988-24.25-0.25-31.27-23.74-32.09-43.98-1.1299-28.02 4.92-56.23 2.44-84.19-1.79-20.06-3.48-38.66-3.21-51.26 3.44-21.42 14.29-40.27 37.66-40.08 2.47 0.019958 5.17 0.019958 7.99 0.049988 11.55 0.13995 25.1 0.90997 33.66 6.44 14.04 9.07 15.92 30.65 16.69 46.46 0.039978 0.78003 0.080017 1.54 0.10999 2.29 0.35999 8.04 1.17 18.09-1.61 25.74z" fill="#fff"/>
				</g>
			
			<g opacity=".21">
				<path d="m358.61 802.18c-0.059998 26.35-4.29 51.79-6 78.02-1.03 15.85-2.26 31.64-3 47.51-0.46997 9.9301 0.44 21.74-2.92 31.22-2.21 6.25-6.08 12.26-10.91 16.92-0.64001 0.040039-1.3 0.059998-1.97 0.049988-24.25-0.25-31.27-23.74-32.09-43.98-1.1299-28.02 4.92-56.23 2.44-84.19-1.79-20.06-3.48-38.66-3.21-51.26 3.44-21.42 14.29-40.27 37.66-40.08 2.47 0.019958 5.17 0.019958 7.99 0.049988 1.31 1.29 2.6 2.79 3.87 4.52 8.08 11.05 8.17 28.32 8.14 41.22z"/>
			</g>
		
		
			<path d="m457.44 671.3c3.2362 4.3462-0.19321 12.868-1.9765 17.083-3.7098 8.7676-9.7151 14.645-16.467 21.003 2.4198 1.0872 5.4756 0.023926 6.1769 2.6816 0.78519 2.9755-4.9849 8.6251-5.2786 11.932 7.1464 4.62 14.856-8.3425 20.303-5.8321 9.7199 4.4798-6.0683 24.571 1.6199 28.176 4.4677-3.9398 5.5172-12.931 6.454-18.487 1.516-8.9919 1.5845-19.093 0.76208-28.178-0.77896-8.6052-2.1874-17.87-11.594-28.378z" fill="#75EEF5"/>
		
		
			<path d="m395.45 837.37c-2.5 6.9-6.91 13.02-9.58 19.97-5.84 15.17-11.49 30.12-13.62 46.47-1.86 14.28-2.51 28.1-8.03 42.09-5.12 12.98-11.03 27-25.24 29.57 3.75-8.13 12.47-17.53 14.12-20.91 3.73-7.65 5.85-16.4 7.35-24.73 4.22-23.42 10.19-45.45 18.79-67.57 3.95-10.18 5.23-20.51 10.33-30.2 4.69-8.92 6.19-15.69 6.22-25.58 0.19 1.06 0.61005 1.99 1.16 2.86 0.039978 0.78003 0.080017 1.54 0.10999 2.29 0.35999 8.04 1.17 18.09-1.61 25.74z" fill="#75EEF5"/>
		
	</g>
	<g id="Torso">
		
			<path d="m43.494 186.38c-0.52414 5.2968-0.99533 12.614-0.74828 21.312 0.17485 6.1561 0.75452 26.565 7.2539 44.307 1.679 4.5834 17.203 45.469 46 51 23.014 4.4202 29.119-18.615 77-37 20.54-7.887 48.67-18.253 80-9 4.7365 1.399 23.677 7.4199 41 25 24.527 24.892 28.077 54.958 28.804 64.023-1.2916 1.9296-6.072 8.5617-15.249 11.268-7.7013 2.2712-14.16 0.49796-16.555-0.29114 0.45178-8.0955 1.2735-39.226-20.18-59.27-23.346-21.813-62.002-20.154-86.82-9.73-28.569 12-37.689 35.15-72.339 40.447-10.485 1.6029-17.514 0.66733-21.529-0.098297-16.995-3.2407-31.035-13.911-41.902-27.781-3.7589-4.7974-7.1495-9.7086-10.196-14.739-3.3258-5.492-13.28-22.827-18.576-47.679-2.2713-10.659-4.2784-25.492-3.1182-43.255 9.0517-2.8381 18.103-5.6762 27.155-8.5143z" fill="#fff"/>
		
		<g opacity=".29">
			<path d="m322.8 346.02c-0.62 0.93005-2.07 2.97-4.45 5.14-2.5099 2.3-6.0699 4.73-10.8 6.13-7.7 2.27-14.15 0.5-16.55-0.28998 0.45001-8.1 1.27-39.23-20.18-59.27-23.35-21.81-62-20.15-86.82-9.73-28.57 12-37.69 35.15-72.34 40.45-10.48 1.6-17.51 0.65997-21.53-0.10004-16.99-3.24-31.03-13.91-41.9-27.78-3.76-4.8-7.15-9.71-10.2-14.74-3.32-5.49-13.28-22.83-18.57-47.68-0.02002-0.12-0.050049-0.23999-0.080017-0.37-0.059998-0.27997-0.12-0.56-0.17999-0.84998-1.48-7.28-2.81-16.36-3.13-26.9-0.14001-4.76-0.080017-9.82 0.27002-15.14 4.6-1.44 9.21-2.88 13.81-4.33 4.45-1.39 8.89-2.78 13.34-4.18-0.52002 5.3-0.98999 12.61-0.73999 21.31 0.16998 6.16 0.75 26.57 7.25 44.31 1.68 4.58 17.2 45.47 46 51 23.01 4.42 29.12-18.62 77-37 20.54-7.89 48.67-18.25 80-9 4.74 1.4 23.68 7.42 41 25 24.53 24.89 28.08 54.96 28.8 64.02z"/>
		
		
			<path d="m318.35 351.16c-2.5099 2.3-6.0699 4.73-10.8 6.13-7.7 2.27-14.15 0.5-16.55-0.28998 0.45001-8.1 1.27-39.23-20.18-59.27-23.35-21.81-62-20.15-86.82-9.73-28.57 12-37.69 35.15-72.34 40.45-10.48 1.6-17.51 0.65997-21.53-0.10004-16.99-3.24-31.03-13.91-41.9-27.78-3.76-4.8-7.15-9.71-10.2-14.74-3.32-5.49-13.28-22.83-18.57-47.68-0.02002-0.12-0.050049-0.23999-0.080017-0.37-0.059998-0.27997-0.12-0.56-0.17999-0.84998-1.48-7.28-2.81-16.36-3.13-26.9-0.14001-4.76-0.080017-9.82 0.27002-15.14 4.6-1.44 9.21-2.88 13.81-4.33 3.35 10.8 9.43 26.97 9.6 33.13 0.16998 6.16 0.75 26.57 7.25 44.31 1.68 4.58 17.2 45.47 46 51 23.01 4.42 29.12-18.62 77-37 20.54-7.89 48.67-18.25 80-9 4.74 1.4 23.68 7.42 41 25 18.15 18.42 24.82 39.68 27.35 53.16z"/>
		</g>
		
			<path d="m474.73 493.41c-3.57 19.56-6.6 39.38-10.59 58.82-2.42 11.77-6.11 27.66-12.08 38.28-6.88 12.23-21.62 14.68-36.57 13.55-11.94-0.90002-24.02-4.07-32.35-6.36-20.73-5.7-40.97-9.17-62.45-8.38-1.03 0.039978-2.07 0.079956-3.11 0.13995-14.07 0.79004-28.92 3.53-43.26 2.6801-4.23-0.25-8.43-0.81006-12.54-1.83-34.83-8.63-27.89-49.95-21.65-76.68 3.13-13.4 6.77-25.75 7.34-39.65 0.36005-8.76 0.34003-17.53 2.5-26.11 4.1801-16.57 13.42-30.77 20.04-46.28 8.59-20.11 9.11-42.6 18.77-62.47 6.4399-13.27 16.13-19.29 27.72-27.15 2.44 2.33 9.1-4.01 16.15-7.02 6.5-2.77 13.72-4.27 21.31-4.76 26.67-1.74 57.87 8.93 78.04 20.24 24.16 13.55 38.01 30.25 40.32 57.89 3.27 39.33 9.63 75.54 2.41 115.09z" fill="#75EEF5"/>
		
		
			<path d="m462.73 493.41c-3.57 19.56-6.6 39.38-10.59 58.82-2.42 11.77-6.11 27.66-12.08 38.28-5.01 8.91-14.18 12.63-24.57 13.55-4.21 0.38-8.61 0.29999-13.02-0.080017-11.61-0.98999-23.24-4.06-31.33-6.28-16.83-4.63-33.34-7.78-50.45-8.38-4.98-0.17999-10.01-0.14001-15.11 0.13995-10.18 0.57001-20.76 2.16-31.26 2.6801-4.23-0.25-8.43-0.81006-12.54-1.83-34.83-8.63-27.89-49.95-21.65-76.68 3.13-13.4 6.77-25.75 7.34-39.65 0.36005-8.76 0.34003-17.53 2.5-26.11 4.1801-16.57 13.42-30.77 20.04-46.28 8.59-20.11 9.11-42.6 18.77-62.47 6.4399-13.27 16.13-19.29 27.72-27.15 0.96002 0.92004 2.57 0.48999 4.6-0.53998 3.14-1.6 7.27-4.65 11.55-6.48 6.5-2.77 13.72-4.27 21.31-4.76 23.6 1.41 48.83 10.59 66.04 20.24 24.16 13.55 38.01 30.25 40.32 57.89 3.27 39.33 9.63 75.54 2.41 115.09z" fill="#5971F7"/>
		
		<g opacity=".22">
			<path d="m426.73 504.41c-3.57 19.56-6.6 39.38-10.59 58.82-2.42 11.77-6.11 27.66-12.08 38.28-0.48999 0.87-1.02 1.7-1.59 2.47-11.61-0.98999-23.24-4.06-31.33-6.28-16.83-4.63-33.34-7.78-50.45-8.38-4.98-0.17999-10.01-0.14001-15.11 0.13995-10.18 0.57001-20.76 2.16-31.26 2.6801-4.23-0.25-8.43-0.81006-12.54-1.83-34.83-8.63-27.89-49.95-21.65-76.68 3.13-13.4 6.77-25.75 7.34-39.65 0.36005-8.76 0.34003-17.53 2.5-26.11 4.1801-16.57 13.42-30.77 20.04-46.28 8.59-20.11 9.11-42.6 18.77-62.47 6.4399-13.27 16.13-19.29 27.72-27.15 0.96002 0.92004 2.57 0.48999 4.6-0.53998 22.67 1.98 46.45 10.78 62.9 20 24.16 13.55 38.01 30.25 40.32 57.89 3.27 39.33 9.63 75.54 2.41 115.09z"/>
		</g>
		
			<path d="m279.58 338.07c-35.67 53.77-60.379 121.35-72.801 184.72-3.3761 17.225-8.2479 37.421 3.0299 52.035 15.264 19.78 33.918 19.491 57.643 18.854 26.822-0.71985 53.111-1.108 79.866-3.1346 14.555-1.1025 30.909-1.05 41.474-11.801 6.9031-7.0246 11.198-19.915 15.076-28.737 9.1965-20.92 15.061-43.656 20.343-65.829 7.9915-33.541 15.143-67.966 17.702-102.41 1.4701-19.782-0.69565-38.673-16.188-53.204-11.666-10.943-28.934-14.112-44.235-15.911-26.478-3.1139-54.392-6.3183-79.976 3.6884-16.899 6.61-21.192 10.43-21.935 21.72z" fill="#fff"/>
		
		<g opacity=".26">
			<path d="m441.91 381.78c-2.56 34.44-9.71 68.86-17.7 102.41-5.29 22.17-11.15 44.9-20.35 65.82-3.87 8.83-8.17 21.72-15.07 28.74-10.57 10.75-26.92 10.7-41.48 11.8-26.75 2.03-53.04 2.42-79.86 3.14-6.96 0.17999-13.48 0.33997-19.6-0.030029-14.77-0.89001-27.26-4.85-38.05-18.83-5.74-7.4399-7.29-16.32-6.99-25.52 0.28003-8.88 2.3-18.06 3.96-26.51 12.43-63.38 37.13-130.96 72.8-184.73 0.75-11.29 5.04-15.11 21.94-21.72 5.67-2.21 11.45-3.78 17.31-4.84 20.57-3.75 42.06-1.27 62.67 1.15 8.59 1.01 17.8 2.45 26.29 5.46 6.6299 2.35 12.83 5.65 17.94 10.46 15.49 14.53 17.66 33.42 16.19 53.2z" fill="#75EEF5"/>
		</g>
		<g opacity=".33">
			<path d="m441.91 381.78c-1.98 26.63-6.7 53.25-12.45 79.46-1.67 7.69-3.44 15.34-5.25 22.95-5.29 22.17-11.15 44.9-20.35 65.82-3.87 8.83-8.17 21.72-15.07 28.74-10.57 10.75-26.92 10.7-41.48 11.8-23.2 1.76-46.06 2.29-69.22 2.86-3.54 0.090027-7.08 0.17999-10.64 0.28003-23.73 0.63-42.38 0.91998-57.65-18.86-5.74-7.4399-7.29-16.32-6.99-25.52 20.74-7.64 52.94 4.82 71.02 6.2 23.44 1.8 57.45 1.46 79.09-8.9901 26.28-12.69 35.77-58.96 41.87-84.59 6.09-25.54 9.45-51.85 14.48-77.68 3.1-15.87 4.62-31.29 2.31-47.39-0.76001-5.27-0.98999-13.18-3.8-18.74 6.6299 2.35 12.83 5.65 17.94 10.46 15.49 14.53 17.66 33.42 16.19 53.2z"/>
		</g>
		<g opacity=".49">
			<path d="m337 389c-12.036 0.26721-26.909 0.85776-43.67 2.13-4.8062 0.36481-11.793 1.0716-18.573 5.6793-3.3633 2.2855-6.253 5.473-9.0667 10.041-11.23 18.23-19.51 37.23-28.44 56.6-13.09 28.37-25.53 64.86-19.02 96.34 3.08 14.9 11.13 27.86 25.96 32.77 1.21 0.39996 2.43 0.76001 3.66 1.1-14.77-0.89001-27.26-4.85-38.05-18.83-5.74-7.4399-7.29-16.32-6.99-25.52 0.28003-8.88 2.3-18.06 3.96-26.51 12.43-63.38 37.13-130.96 72.8-184.73 0.75-11.29 5.04-15.11 21.94-21.72 5.67-2.21 11.45-3.78 17.31-4.84-3.6039 1.5517-13.429 6.3531-19.82 17.49-9.216 16.06-3.8925 32.406-3 35 19.667 2.6667 39.333 5.3333 59 8l-63-3c-4.1588 0.83578-7.3553 4.0648-8 8-0.7594 4.6353 2.1586 9.414 7 11 15.333 0.33334 30.667 0.66666 46 1z" fill="#FF70EA"/>
		</g>
		<g opacity=".33">
			<path d="m284.77 375.87c-1.8646 5.752 2.1928 11.702 8.2264 12.099 7.7018 0.50751 15.708 0.86496 24 1.032 15.342 0.30911 29.758-0.07193 43.119-0.89902 10.354-0.64096 10.204-15.913-0.16235-16.309l-65.741-2.5155c-4.268-0.1633-8.1247 2.5296-9.4418 6.5926v3.05e-5z"/>
		
		
			<path d="m366.05 385.16c-1.26 1.62-3.24 2.77-5.93 2.94-13.36 0.83002-27.78 1.21-43.12 0.90002-8.29-0.17004-16.3-0.52002-24-1.03-6.03-0.39996-10.09-6.35-8.23-12.1 1.29-3.96 4.99-6.63 9.14-6.6-0.94995 1-1.69 2.22-2.14 3.6-1.86 5.75 2.2 11.7 8.23 12.1 7.7 0.51001 15.71 0.85999 24 1.03 14.93 0.29999 28.99-0.049988 42.05-0.84003z"/>
		</g>
		<g opacity=".68">
			<path d="m429.46 461.24c-1.67 7.69-3.44 15.34-5.25 22.95-5.29 22.17-11.15 44.9-20.35 65.82-3.87 8.83-8.17 21.72-15.07 28.74-10.57 10.75-26.92 10.7-41.48 11.8-23.2 1.76-46.06 2.29-69.22 2.86 12.63-2.76 25.27-5.63 37.9-7.79 21.9-3.75 46.96-10.14 66.28-21.9 16.11-9.81 23.3-39.14 29.86-55.73 6.07-15.39 12.74-30.82 17.33-46.75z" fill="#75EEF5"/>
		</g>
		
			<path d="m324.91 446.68c-3.8199 11.39-14.3 18.36-24.42 16.83-1.05-0.16003-2.1-0.41003-3.13-0.76001-10.99-3.69-16.49-16.86-12.27-29.43 4.22-12.57 16.55-19.76 27.55-16.07 1 0.33997 1.96 0.75 2.87 1.24 9.04 4.85 13.23 16.77 9.4 28.19z" fill="#FF70EA"/>
		
		
			<path d="m324.91 446.68c-3.8199 11.39-14.3 18.36-24.42 16.83-9.04-4.85-13.23-16.77-9.4-28.19 3.8199-11.39 14.3-18.36 24.42-16.83 9.04 4.85 13.23 16.77 9.4 28.19z" fill="#5971F7"/>
		
	</g>
	<g id="Arm_R">
		
			<path d="m648.1 404.28c6.9301 18.39-0.31995 43.5-7.56 62.1-8.98 23.04-25.65 41.64-39.04 62.42-8.91 13.83-21.13 18.1-34.01 26.17-0.72998 0.46002-1.47 0.90002-2.2 1.34-20 11.75-40.06 12.69-60.25 3.5-2.44-1.1-4.88-2.36-7.32-3.76-25.27-14.52-26.31-43.3-36.54-67.23-5.31-12.45-11.04-20.52-21.28-29.09-8.31-6.95-7.87-10.5-8.62-23.4-1.96-33.76 4.73-61.13 19.37-87.01 0.17999-0.33002 0.37-0.67004 0.56-1 6.63-5.76 17.44-9.35 27.36-9.52 0.089966 0 0.19-0.01001 0.27997 0 0.050049-0.01001 0.11005-0.01001 0.16003-0.01001 3.9-0.029968 7.65 0.47003 10.94 1.58 20.43 6.89 26.78 29.42 31.41 47.28 4.63 17.84 13.09 35.3 21.78 51.73 2.87 5.41 5.75 10.71 8.53 15.87 0.73004-5.21 5.8-7.2 11.15-6.37-0.78003-7.08 3.96-14.89 8.85-20.54 0.94-1.09 1.88-2.09 2.79-3 9.44-9.37 11.84-10.91 15.9-22.46 3-8.57 7.44-15.19 13.57-18.68 1.34-5.39 3.76-10.99 8.36-12.85 6.28-2.53 15.22-0.17999 22.13 2.63 1.8 0.72998 3.46 1.49 4.9 2.2 5.05 2.5 12.91 7.04 13.73 13.11 0.02002 0.10999 0.030029 0.22998 0.030029 0.35999 0.20001 3.31-2.8 8.59-3.88 11.46-0.35999 0.97998-0.72003 2.05-1.1 3.17z" fill="#75EEF5"/>
		
		
			<path d="m648.1 404.28c6.9301 18.39-0.31995 43.5-7.56 62.1-8.98 23.04-25.65 41.64-39.04 62.42-8.91 13.83-21.13 18.1-34.01 26.17-0.72998 0.46002-1.47 0.90002-2.2 1.34-20 11.75-40.06 12.69-60.25 3.5-2.44-1.1-4.88-2.36-7.32-3.76-25.27-14.52-26.31-43.3-36.54-67.23-5.31-12.45-11.04-20.52-21.28-29.09-8.31-6.95-7.87-10.5-8.62-23.4-1.96-33.76 4.73-61.13 19.37-87.01 6.22-2.78 13.48-4.4 20.34-4.52 0.090027 0 0.20001-0.01001 0.29999 0 0.050049-0.01001 0.12-0.01001 0.17004-0.01001 4.25-0.029968 8.33 0.51001 11.91 1.72 22.23 7.5 29.13 32.01 34.17 51.44 5.04 19.41 14.24 38.41 23.7 56.28 3.12 5.89 6.25 11.66 9.28 17.27 0.78998-5.67 6.31-7.83 12.13-6.93-0.85004-7.7 4.31-16.2 9.63-22.35 1.02-1.18 2.05-2.27 3.04-3.26 10.27-10.2 12.88-11.87 17.29-24.44 3.27-9.3199 8.1-16.53 14.77-20.32 1.46-5.8701 4.09-11.96 9.09-13.98 6.84-2.76 16.56-0.20001 24.08 2.86 1.96 0.79004 3.77 1.6201 5.33 2.39 2.15 1.06 4.76 2.46 7.2 4.18 0.20001 3.31-2.8 8.59-3.88 11.46-0.35999 0.97998-0.72003 2.05-1.1 3.17z" fill="#5971F7"/>
		
		
			<path d="m565.29 556.31c-20 11.748-40.06 12.689-60.25 3.5021 11.06-18.694 50.2-24.272 60.25-3.5021z" fill="#FF70EA"/>
		
		<g opacity=".22">
			<path d="m478.75 338.99c0.030029-0.070007 0.059998-0.13 0.099976-0.19 0.050049-0.10999 0.10004-0.22003 0.16003-0.33002 0.01001 0.13 0.01001 0.23999 0 0.32001-0.030029 0.28003-0.13 0.31-0.26001 0.20001z"/>
		
		
			<path d="m648.1 404.28c6.9301 18.39-0.31995 43.5-7.56 62.1-8.98 23.04-25.65 41.64-39.04 62.42-8.91 13.83-21.13 18.1-34.01 26.17-0.72998 0.46002-1.47 0.90002-2.2 1.34-20 11.75-40.06 12.69-60.25 3.5-2.44-1.1-4.88-2.36-7.32-3.76-25.27-14.52-26.31-43.3-36.54-67.23-5.31-12.45-11.04-20.52-21.28-29.09-2-1.67-3.4901-3.14-4.61-4.59-3.56-4.6-3.44-9.01-4.0099-18.81-1.9901-34.19 4.9-61.83 19.93-88.01 6.63-5.76 17.44-9.35 27.36-9.52 0.059998 0.080017 0.13 0.15002 0.17999 0.19-6.71 13.55-5.77 31.97-6.77 46.51-1.81 26.26 0.97003 53.95 8.96 79.12 7.26 22.88 26.14 63.15 56.43 44.87 6.35-3.84 9.71-6.15 15.42 0.57001 2.97 3.51 6.12 12.66 12.5 10.93 3.06-0.82001 2.63-4.82 4.54-6.85 2.72-2.92 5.34-3.36 8.93-4.2401 10.17-2.52 16.58-4.33 22.83-13.89 5.87-9 6.33-20 9.61-29.9 2.78-8.35 7.92-14.35 12.84-21.38 7.9-11.28 17.03-27.41 13.14-42.11-1.48-5.6-6.15-6.86-9.45-10.73-5.39-6.33-1.28-5.9901 3.1-11.63 1.8-2.32 2.68-4.63 3.59-6.28 1.8 0.72998 3.46 1.49 4.9 2.2 2.29 1.14 5.17 2.69 7.7 4.63 3.04 2.31 5.58 5.17 6.03 8.48 0.45001 3.28-2.73 8.84-3.85 11.82-0.35999 0.97998-0.72003 2.05-1.1 3.17z"/>
		
		
			<path d="m648.1 404.28c6.9301 18.39-0.31995 43.5-7.56 62.1-8.98 23.04-25.65 41.64-39.04 62.42-8.91 13.83-21.13 18.1-34.01 26.17-0.72998 0.46002-1.47 0.90002-2.2 1.34-20 11.75-40.06 12.69-60.25 3.5-2.44-1.1-4.88-2.36-7.32-3.76-25.27-14.52-26.31-43.3-36.54-67.23-5.31-12.45-11.04-20.52-21.28-29.09-2-1.67-3.4901-3.14-4.61-4.59-0.10999-0.25-0.23999-0.5-0.38995-0.76001l7.71 6.27c-6.58-6.53-5.45-28.89 0.46002-34.03 4.83 1.46 9.47 14.8 11.78 19.02 6.85 12.53 10.73 26.43 15.22 39.92 3 9.02 5.1 22.66 11.08 30.24 4.37 5.53 12.32 9.05 17.44 14.4 11.98 12.52 22.31 17.56 39.11 12.53 11.1-3.32 22.63 1.8 33.94-1.41 16.96-4.82 22.86-23.04 33.27-35 3.58-4.12 12.32-8.78 14.24-13.8 1.5099-3.95-1.19-8.24-1.12-12.39 0.14996-9.24 8.55-10.57 12.79-17.98 2.83-4.95 1.55-9.77 2.83-15.11 1.22-5.06 4.41-9.53 6.24-14.48 3.13-8.44 7.71-21.31 4.64-30.32-1.16-3.41-4.69-5.52-3.73-10.02 0.66003-3.09 3.78-7.69 6.22-11.41 3.04 2.31 5.58 5.17 6.03 8.48 0.45001 3.28-2.73 8.84-3.85 11.82-0.35999 0.97998-0.72003 2.05-1.1 3.17z"/>
		
		
			<path d="m582.09 446.77c-7.02 0.47003-7.9-0.25995-4.92 6.14 1.96 4.24 7.01 10.04-0.72998 8.74-4.42-0.73999-7.04-5.69-11.96-3.3-0.019958 0.64001-0.16998 1.37-0.16998 2.03-12.27 0.26001-4.9 6.81-8.88 16.14-6.25-1.44-7.68-20.25-9.03-25.92-0.88-3.69-1.96-7.47-3.26-11.22 2.87 5.41 5.75 10.71 8.53 15.87 0.73004-5.21 5.8-7.2 11.15-6.37-0.78003-7.08 3.96-14.89 8.85-20.54 1.65 3.79 3.65 7.14 7.87 9.54 6.69 3.8 13.45 8.16 2.55 8.89z"/>
		</g>
		
			<path d="m662.9 352.16c-1.9 14.66-6.82 26.21-10.9 33.84-2.76-3.02-7-6.9-13-10-10-5.18-19.67-5.5-25.5-5.08-1.27 0.099976-2.35 0.22003-3.22 0.34003-0.5-0.66003-0.96002-1.4-1.4-2.2-2.91-5.34-4.53-13.38-5.95-18.9-1.83-7.09-4.09-21.04 1.76-27.1 7.93-8.21 6.06 14.64 10.51 15.98 4.71-4.9 7.12-15.03 9.41-21.2 4.41-11.88 5.58-25.45 7.61-37.83 0.87006-5.3 3.8701-14.94 7.3101-9.48 0.47998 0.76001 0.97998 1.83 1.48 3.25 0.02002 0.040039 0.029968 0.090027 0.049988 0.14001 1.18 3.4 2.73 15.36 1.36 17.99 1.06-0.77997 1.99-0.97998 2.81-0.78998 2.2 0.5 3.64 3.81 4.76 6.32v0.01001c0.35004 0.77997 0.66998 1.47 0.97003 1.99 0.78998-0.10004 1.47-0.049988 2.06 0.13995 3.14 0.97003 3.77 5.51 4.98 8.39v0.02002c0.15002 0.35999 0.31 0.70001 0.48999 1 0.97003 0.47998 1.72 1.09 2.29 1.81v0.01001c2.0099 2.46 1.95 6.13 1.8199 9.61-0.069946 1.56-0.14996 3.09-0.059998 4.45 0.25 3.91 2.05 14.16 0.36005 27.29z" fill="#7AAFFF"/>
		
		<g opacity=".12">
			<path d="m662.9 352.16c-1.9 14.66-6.82 26.21-10.9 33.84-2.76-3.02-7-6.9-13-10-10-5.18-19.67-5.5-25.5-5.08-2.17-6.4-6.88-18.52-1.72-24.21 2.56-2.8199 4.06-1.02 7.0699-0.63 3.71 0.48004 6.17-0.72998 8.29-3.68 5.42-7.53 7.35-19.28 10.06-28.01 0.76996-2.48 1.87-4.8 4.01-5.54 3.34-1.15 6.08 1.7 7.79 4.35 2.52 3.87 2.96 4.08 7.71 4.87 2.49 0.40997 4.41 1.18 5.89 2.35-0.069946 1.56-0.14996 3.09-0.059998 4.45 0.25 3.91 2.05 14.16 0.36005 27.29z"/>
		
		
			<path d="m645.63 302.2c-0.39001 8.7599-2.83 18.91-6.55 26.86-0.47003-3.54 0.89996-7.8 1.22-11.37 0.52002-5.87 0.35999-11.77 0.35004-17.66-0.02002-9.83 0.75-19.8-1.12-29.5 0.5 0.79004 1.0099 1.9 1.53 3.39 1.18 3.4 2.73 15.36 1.36 17.99 1.06-0.77997 1.99-0.97998 2.81-0.78998 0.21002 3.68 0.57001 7.41 0.40002 11.08z"/>
		
		
			<path d="m660.78 310.8v0.01001c-0.090027 0.5-0.17004 0.98999-0.23004 1.45-1 7.97-2.18 16.23-6.26 23.35 1.9901-6.32 2.63-13.54 3.28-20.09 0.21997-2.23 0.44-4.89 0.42999-7.53 0.15002 0.35999 0.31 0.70001 0.48999 1 0.97003 0.47998 1.72 1.09 2.29 1.81z"/>
		
		
			<path d="m653.02 299.69c-0.17999 0.98642-0.36005 1.9519-0.47003 2.8123-1 8.3634-2.18 17.031-6.26 24.503 1.9901-6.632 2.63-14.208 3.28-21.082 0.23999-2.5079 0.46997-5.5196 0.41998-8.4683 0.35004 0.81848 0.66998 1.5425 0.97003 2.0882 0.78998-0.10498 1.47-0.05246 2.06 0.14685z"/>
		</g>
		
			<path d="m641.01 273.78c-3.6 6.48-7.17 12.58-9.26 20.17-2.6 9.46-3.34 19.29-6.08 28.8-1.71 5.91-3.23 15.03-7.96 19.48-6.45 6.08-7.42-6.55-13.31-5.4-4.44 8.63 1.17 22.81 4.48 32.23-2.91-5.34-4.53-13.38-5.95-18.9-1.83-7.09-4.09-21.04 1.76-27.1 7.93-8.21 6.06 14.64 10.51 15.98 4.71-4.9 7.12-15.03 9.41-21.2 4.41-11.88 5.58-25.45 7.61-37.83 0.87006-5.3 3.8701-14.94 7.3101-9.48 0.47998 0.76001 0.97998 1.83 1.48 3.25z" fill="#75EEF5"/>
		
	</g>

</svg>
